PathFileType	4	(X/Y/Z)	 s04c0001.trc
DataRate	CameraRate	NumFrames	NumMarkers	Units	OrigDataRate	OrigDataStartFrame	OrigNumFrames
200	200	4	49	mm	200	501	2000
Frame#	Time	racr			lacr			c7			jug			rlel			rdr			llel			ldr			s2			lic			ric			lasi			rasi			rpsi			lpsi			rgt			lgt			rth1			rth2			rth3			rth4			rlfc			rmfc			rsh1			rsh2			rsh3			rsh4			rlmal			rmmal			rcal			rtoe			rmt5			rmt1			lth1			lth2			lth4			lth3			llfc			lmfc			lsh1			lsh2			lsh3			lsh4			llmal			lmmal			lcal			ltoe			lmt1			lmt5			
		X1	Y1	Z1	X2	Y2	Z2	X3	Y3	Z3	X4	Y4	Z4	X5	Y5	Z5	X6	Y6	Z6	X7	Y7	Z7	X8	Y8	Z8	X9	Y9	Z9	X10	Y10	Z10	X11	Y11	Z11	X12	Y12	Z12	X13	Y13	Z13	X14	Y14	Z14	X15	Y15	Z15	X16	Y16	Z16	X17	Y17	Z17	X18	Y18	Z18	X19	Y19	Z19	X20	Y20	Z20	X21	Y21	Z21	X22	Y22	Z22	X23	Y23	Z23	X24	Y24	Z24	X25	Y25	Z25	X26	Y26	Z26	X27	Y27	Z27	X28	Y28	Z28	X29	Y29	Z29	X30	Y30	Z30	X31	Y31	Z31	X32	Y32	Z32	X33	Y33	Z33	X34	Y34	Z34	X35	Y35	Z35	X36	Y36	Z36	X37	Y37	Z37	X38	Y38	Z38	X39	Y39	Z39	X40	Y40	Z40	X41	Y41	Z41	X42	Y42	Z42	X43	Y43	Z43	X44	Y44	Z44	X45	Y45	Z45	X46	Y46	Z46	X47	Y47	Z47	X48	Y48	Z48	X49	Y49	Z49	
501	2.5050	166.583908	1557.060238	284.639431	194.066508	1556.316127	-79.704552	118.853985	1590.055550	86.288919	250.371254	1525.236768	100.482358	91.067668	1215.934593	375.234490	202.730176	974.279629	485.354873	156.103961	1241.539425	-193.708689	297.674121	986.189261	-277.803591	63.952454	1053.848767	97.879381	238.740060	1110.816590	-49.188165	199.992855	1101.049667	274.033175	286.104118	1055.682844	5.171738	267.057614	1059.984327	232.851540	80.690916	1088.807988	142.015749	82.679011	1084.549223	63.251510	165.799450	1000.854368	278.058257	189.250053	955.508630	-66.817398	180.548148	865.608318	299.696656	195.177323	778.998629	290.304883	167.932221	698.864826	280.162749	231.155991	778.184737	280.330743	153.688142	547.937493	249.973276	161.254500	525.546930	139.841539	105.259484	425.607334	268.389046	121.429348	336.153043	260.053603	88.553092	257.025969	243.228520	157.534779	335.469171	245.937302	89.127488	103.164412	231.656671	138.438961	111.403457	159.460022	48.171344	68.265403	168.132077	314.034017	83.366262	304.779984	232.186276	52.810478	326.701650	279.354112	49.964102	227.720747	192.565803	862.204446	-79.921245	211.904142	777.379220	-77.863483	247.224227	775.976959	-67.749292	185.659666	692.449191	-72.289330	164.775474	551.760427	-53.641623	190.584598	521.852621	50.715915	148.481611	423.650287	-80.333869	170.926559	339.771707	-67.831842	147.473015	253.930019	-67.500661	200.231956	341.236656	-41.677938	146.796405	104.545384	-63.810925	154.843459	100.130549	22.046294	80.135986	77.282171	-14.598307	376.942486	82.984454	-57.742542	312.812799	55.052310	-0.009114	302.212877	43.179149	-111.017145	
502	2.5100	166.597274	1557.063901	284.627422	194.087689	1556.333384	-79.718812	118.853957	1590.054276	86.290047	250.395364	1525.257282	100.471401	91.108364	1215.921132	375.228860	202.775837	974.308193	485.380008	156.116574	1241.565483	-193.725612	297.698072	986.210266	-277.846941	63.927222	1053.915801	97.788165	238.723597	1110.794744	-49.189791	199.995646	1101.053655	274.033584	286.097690	1055.687409	5.186587	267.042857	1059.956183	232.826179	80.691271	1088.815599	142.018690	82.678302	1084.551283	63.263676	165.841902	1000.847838	278.056483	189.271991	955.509797	-66.814774	180.549464	865.610073	299.693349	195.193387	778.890170	290.001441	167.929600	698.862118	280.162413	231.113455	778.245229	280.231359	153.692838	547.926317	249.981343	161.261599	525.560409	139.845949	105.263322	425.619149	268.398735	121.424246	336.145064	260.040244	88.545120	257.015724	243.227943	157.534699	335.469980	245.923330	89.145127	103.157672	231.656305	138.434423	111.412102	159.446304	48.168492	68.262573	168.128621	314.038037	83.357670	304.789230	232.173431	52.803358	326.695433	279.360551	49.976961	227.719603	192.578795	862.205791	-79.922441	211.931765	777.357907	-77.840264	247.232911	776.001963	-67.751743	185.674998	692.437930	-72.284160	164.772957	551.764114	-53.644737	190.566988	521.862326	50.729950	148.480934	423.651571	-80.327607	170.928979	339.764715	-67.832351	147.480284	253.916725	-67.504502	200.230018	341.242709	-41.687743	146.790484	104.540709	-63.810621	154.824441	100.139916	22.061808	80.134045	77.284637	-14.585520	376.935833	82.974829	-57.755194	312.825072	55.049171	-0.008781	302.213820	43.180861	-111.021963	
503	2.5150	166.616398	1557.084593	284.629315	194.095707	1556.342124	-79.729829	118.848963	1590.073479	86.301921	250.423478	1525.249709	100.450620	91.132893	1215.942032	375.214959	202.801942	974.325354	485.404804	156.146768	1241.589041	-193.751702	297.722573	986.229910	-277.876747	63.927595	1053.916991	97.795536	238.751273	1110.800490	-49.184191	200.015773	1101.053698	274.037661	286.109243	1055.682264	5.185554	267.052049	1059.959240	232.817598	80.712367	1088.798343	142.038994	82.690686	1084.544445	63.269264	165.830171	1000.856875	278.067613	189.280015	955.503509	-66.803342	180.542726	865.616297	299.698320	195.195981	778.903152	290.009801	167.936414	698.867249	280.189211	231.110094	778.245857	280.237899	153.667924	547.952030	249.986351	161.265411	525.552179	139.848247	105.253363	425.614190	268.399001	121.433384	336.152865	260.046933	88.543520	257.016196	243.224820	157.517149	335.481998	245.940087	89.144720	103.157937	231.656631	138.433048	111.408593	159.456735	48.169252	68.258672	168.138232	314.037217	83.359000	304.785524	232.174375	52.813617	326.702706	279.348621	49.975631	227.725371	192.071807	862.171492	-80.051738	211.913804	777.373914	-77.863674	247.229626	775.979601	-67.749858	185.675015	692.437943	-72.284164	164.777761	551.735351	-53.633253	190.559765	521.860600	50.724623	148.464693	423.654086	-80.331271	170.937310	339.773225	-67.839515	147.474660	253.927918	-67.498677	200.233266	341.245970	-41.696419	146.798160	104.543603	-63.810315	154.824020	100.140163	22.062131	80.143670	77.285606	-14.596979	376.931703	82.983903	-57.738082	312.822067	55.057678	-0.006590	302.213042	43.182901	-111.008374	
504	2.5200	166.624029	1557.080726	284.615099	194.112523	1556.347476	-79.748446	118.857635	1590.060564	86.279048	250.437335	1525.265703	100.456692	91.161485	1215.929533	375.190522	202.862840	974.343905	485.427970	156.181542	1241.600637	-193.771849	297.758490	986.248014	-277.901860	63.928837	1053.871701	97.815706	238.755382	1110.801557	-49.183716	200.035271	1101.061763	274.040196	286.147583	1055.671028	5.178475	267.071569	1059.961217	232.819561	80.721657	1088.808852	142.034121	82.703666	1084.547395	63.264636	165.833855	1000.849099	278.067169	189.295570	955.502162	-66.807418	180.545839	865.610710	299.697975	195.153222	779.001679	290.314953	167.926704	698.864368	280.177025	231.165046	778.179482	280.346202	153.680309	547.939904	249.981976	161.273560	525.543036	139.837727	105.262977	425.618994	268.399309	121.417337	336.152508	260.045459	88.542856	257.021361	243.225277	157.522862	335.486069	245.953062	89.141130	103.154881	231.656233	138.448217	111.415617	159.445881	48.165259	68.268096	168.120245	314.035696	83.365406	304.786856	232.192320	52.784014	326.701863	279.338204	49.982087	227.726202	192.084408	862.173405	-80.046846	211.931765	777.357895	-77.840270	247.257407	775.996424	-67.726926	185.678278	692.450683	-72.299225	164.782172	551.757410	-53.640095	190.562603	521.863693	50.738461	148.473044	423.646777	-80.336362	170.919821	339.762084	-67.828630	147.474143	253.921402	-67.496335	200.235145	341.239159	-41.697012	146.812749	104.530556	-63.819527	154.829144	100.122905	22.053994	80.137972	77.288970	-14.585004	376.931698	82.983932	-57.738069	312.826427	55.043258	-0.015176	302.195095	43.172269	-111.035007	
